# xmcd
# Track frame offsets:
# 150
# 13490
# 27139
# 40995
# 54870
# 67706
# 80317
# 94231
# 107872
# 122301
# 136295
# 149779
# 163403
# 177039
# 190127
# 204783
# 218058
# 232220
# 245889
# 258667
# 271827
# 285595
# 298644
#
# Disc length: 4147 seconds
# Revision: 0
# Processed by: cddbd v1.4PL0 Copyright (c) Steve Scherf et al.
# Submitted via: VisiTrax 2.9.7.197 - For more info visit www.synapsa.com
#
DISCID=57103117
DTITLE=Johnson, Earl - Earl Johnson - Complete Record Works In Chronologica
DTITLE=l Order - Volume 1 - 1927
DYEAR=1997
DGENRE=Country - Old Time
TTITLE0=Ain't Nobody's Business
TTITLE1=Dixie
TTITLE2=Hen Cackle
TTITLE3=Bully Of The Town
TTITLE4=I'm Satisfied
TTITLE5=Three Night's Experience
TTITLE6=Johnson's Old Grey Mule
TTITLE7=Boil Dem Cabbage Down
TTITLE8=John Henry Blues
TTITLE9=I Don't Love Nobody
TTITLE10=Shortnin' Bread
TTITLE11=I Get My Whiskey From Rockingham
TTITLE12=Red Hot Breakdown
TTITLE13=I've Got A Woman On Sourwood Mountain
TTITLE14=All Night Long
TTITLE15=Old Grey Mare Kicking Out Of The Wilderness
TTITLE16=They Don't Roost Too High For Me
TTITLE17=Mississippi Jubilee
TTITLE18=Leather Breeches
TTITLE19=Poor Little Joe
TTITLE20=The Little Grave In Georgia
TTITLE21=In The Shadow Of The Pine
TTITLE22=Johnnie, Get Your Gun
EXTD=Document, DOCD-8005
EXTT0=
EXTT1=
EXTT2=
EXTT3=
EXTT4=
EXTT5=
EXTT6=
EXTT7=
EXTT8=
EXTT9=
EXTT10=
EXTT11=
EXTT12=
EXTT13=
EXTT14=
EXTT15=
EXTT16=
EXTT17=
EXTT18=
EXTT19=
EXTT20=
EXTT21=
EXTT22=
PLAYORDER=
